<svg xmlns="http://www.w3.org/2000/svg" viewBox="93 53 67 83" role="img" aria-label="Dimensioned layout of the 2.45 GHz antenna test board">
<defs><pattern id="ko" width="1.9" height="1.9" patternUnits="userSpaceOnUse" patternTransform="rotate(45)"><line class="keepout-hatch" x1="0" y1="0" x2="0" y2="1.9"/></pattern></defs>
<rect class="keepout" x="100" y="60" width="53" height="23" fill="url(#ko)"/>
<rect class="board-edge" x="100" y="60" width="53" height="69"/>
<rect class="bcu" x="110.25" y="120.775" width="3.5" height="12.95" transform="rotate(-90 112 127.25)"/>
<rect class="keepout" x="108.525" y="83" width="6.95" height="46" fill="url(#ko)"/>
<rect class="keepout" x="108" y="83" width="9.5" height="11.5" fill="url(#ko)"/>
<polygon class="fcu" points="106,83 106,64 117,64 117,75 123,75 123,64 127,64 127,75 133,75 133,64 137,64 137,75 143,75 143,64 147,64 147,80 148,80 148,63 142,63 142,74 138,74 138,63 132,63 132,74 128,74 128,63 122,63 122,74 118,74 118,63 105,63 105,83"/>
<polygon class="fcu" points="113,83 113,63 111,63 111,83"/>
<path class="trace" stroke-width="0.6" stroke-linecap="round" fill="none" d="M112,83 L112,86"/>
<path class="trace" stroke-width="0.6" stroke-linecap="round" fill="none" d="M112,86 L114.52,86"/>
<path class="trace" stroke-width="0.6" stroke-linecap="round" fill="none" d="M112,86 L112,89.02"/>
<path class="trace" stroke-width="0.6" stroke-linecap="round" fill="none" d="M112,89.98 L112,93"/>
<path class="trace" stroke-width="0.6" stroke-linecap="round" fill="none" d="M112,93 L114.52,93"/>
<path class="trace" stroke-width="0.6" stroke-linecap="round" fill="none" d="M112,93 L112,95"/>
<path class="trace" stroke-width="0.835" stroke-linecap="round" fill="none" d="M112,95 L112,95.6"/>
<path class="trace" stroke-width="1.305" stroke-linecap="round" fill="none" d="M112,95.6 L112,96.2"/>
<path class="trace" stroke-width="1.775" stroke-linecap="round" fill="none" d="M112,96.2 L112,96.8"/>
<path class="trace" stroke-width="2.245" stroke-linecap="round" fill="none" d="M112,96.8 L112,97.4"/>
<path class="trace" stroke-width="2.715" stroke-linecap="round" fill="none" d="M112,97.4 L112,98"/>
<path class="trace" stroke-width="2.95" stroke-linecap="round" fill="none" d="M112,98 L112,129"/>
<path class="trace" stroke-width="0.6" stroke-linecap="round" fill="none" d="M115.48,86 L116.4,86"/>
<path class="trace" stroke-width="0.6" stroke-linecap="round" fill="none" d="M115.48,93 L116.4,93"/>
<path class="trace" stroke-width="1" stroke-linecap="round" fill="none" d="M105.5,82.5 L105.5,84.5"/>
<rect class="fcu pad" x="110.25" y="125.775" width="3.5" height="2.95" transform="rotate(-90 112 127.25)"/>
<rect class="fcu pad" x="105.275" y="125.75" width="3.5" height="3" transform="rotate(-90 107.025 127.25)"/>
<rect class="fcu pad" x="115.225" y="125.75" width="3.5" height="3" transform="rotate(-90 116.975 127.25)"/>
<rect class="fcu pad" x="114.24" y="92.69" width="0.56" height="0.62" transform="rotate(-0 114.52 93)"/>
<rect class="fcu pad" x="115.2" y="92.69" width="0.56" height="0.62" transform="rotate(-0 115.48 93)"/>
<rect class="fcu pad" x="111.72" y="89.67" width="0.56" height="0.62" transform="rotate(-90 112 89.98)"/>
<rect class="fcu pad" x="111.72" y="88.71" width="0.56" height="0.62" transform="rotate(-90 112 89.02)"/>
<rect class="fcu pad" x="114.24" y="85.69" width="0.56" height="0.62" transform="rotate(-0 114.52 86)"/>
<rect class="fcu pad" x="115.2" y="85.69" width="0.56" height="0.62" transform="rotate(-0 115.48 86)"/>
<rect class="fcu pad" x="111" y="82" width="2" height="1" transform="rotate(-0 112 82.5)"/>
<rect class="fcu pad" x="105" y="82" width="1" height="1" transform="rotate(-0 105.5 82.5)"/>
<circle class="via" cx="118" cy="83.8" r="0.3"/>
<circle class="via" cx="118" cy="127.2" r="0.3"/>
<circle class="via" cx="121" cy="83.8" r="0.3"/>
<circle class="via" cx="121" cy="127.2" r="0.3"/>
<circle class="via" cx="124" cy="83.8" r="0.3"/>
<circle class="via" cx="124" cy="127.2" r="0.3"/>
<circle class="via" cx="127" cy="83.8" r="0.3"/>
<circle class="via" cx="127" cy="127.2" r="0.3"/>
<circle class="via" cx="130" cy="83.8" r="0.3"/>
<circle class="via" cx="130" cy="127.2" r="0.3"/>
<circle class="via" cx="133" cy="83.8" r="0.3"/>
<circle class="via" cx="133" cy="127.2" r="0.3"/>
<circle class="via" cx="136" cy="83.8" r="0.3"/>
<circle class="via" cx="136" cy="127.2" r="0.3"/>
<circle class="via" cx="139" cy="83.8" r="0.3"/>
<circle class="via" cx="139" cy="127.2" r="0.3"/>
<circle class="via" cx="120" cy="87.8" r="0.3"/>
<circle class="via" cx="124" cy="87.8" r="0.3"/>
<circle class="via" cx="128" cy="87.8" r="0.3"/>
<circle class="via" cx="132" cy="87.8" r="0.3"/>
<circle class="via" cx="136" cy="87.8" r="0.3"/>
<circle class="via" cx="140" cy="87.8" r="0.3"/>
<circle class="via" cx="120" cy="91.8" r="0.3"/>
<circle class="via" cx="124" cy="91.8" r="0.3"/>
<circle class="via" cx="128" cy="91.8" r="0.3"/>
<circle class="via" cx="132" cy="91.8" r="0.3"/>
<circle class="via" cx="136" cy="91.8" r="0.3"/>
<circle class="via" cx="140" cy="91.8" r="0.3"/>
<circle class="via" cx="116" cy="95.8" r="0.3"/>
<circle class="via" cx="120" cy="95.8" r="0.3"/>
<circle class="via" cx="124" cy="95.8" r="0.3"/>
<circle class="via" cx="128" cy="95.8" r="0.3"/>
<circle class="via" cx="132" cy="95.8" r="0.3"/>
<circle class="via" cx="136" cy="95.8" r="0.3"/>
<circle class="via" cx="140" cy="95.8" r="0.3"/>
<circle class="via" cx="116" cy="99.8" r="0.3"/>
<circle class="via" cx="120" cy="99.8" r="0.3"/>
<circle class="via" cx="124" cy="99.8" r="0.3"/>
<circle class="via" cx="128" cy="99.8" r="0.3"/>
<circle class="via" cx="132" cy="99.8" r="0.3"/>
<circle class="via" cx="136" cy="99.8" r="0.3"/>
<circle class="via" cx="140" cy="99.8" r="0.3"/>
<circle class="via" cx="116" cy="103.8" r="0.3"/>
<circle class="via" cx="120" cy="103.8" r="0.3"/>
<circle class="via" cx="124" cy="103.8" r="0.3"/>
<circle class="via" cx="128" cy="103.8" r="0.3"/>
<circle class="via" cx="132" cy="103.8" r="0.3"/>
<circle class="via" cx="136" cy="103.8" r="0.3"/>
<circle class="via" cx="140" cy="103.8" r="0.3"/>
<circle class="via" cx="116" cy="107.8" r="0.3"/>
<circle class="via" cx="120" cy="107.8" r="0.3"/>
<circle class="via" cx="124" cy="107.8" r="0.3"/>
<circle class="via" cx="128" cy="107.8" r="0.3"/>
<circle class="via" cx="132" cy="107.8" r="0.3"/>
<circle class="via" cx="136" cy="107.8" r="0.3"/>
<circle class="via" cx="140" cy="107.8" r="0.3"/>
<circle class="via" cx="116" cy="111.8" r="0.3"/>
<circle class="via" cx="120" cy="111.8" r="0.3"/>
<circle class="via" cx="124" cy="111.8" r="0.3"/>
<circle class="via" cx="128" cy="111.8" r="0.3"/>
<circle class="via" cx="132" cy="111.8" r="0.3"/>
<circle class="via" cx="136" cy="111.8" r="0.3"/>
<circle class="via" cx="140" cy="111.8" r="0.3"/>
<circle class="via" cx="116" cy="115.8" r="0.3"/>
<circle class="via" cx="120" cy="115.8" r="0.3"/>
<circle class="via" cx="124" cy="115.8" r="0.3"/>
<circle class="via" cx="128" cy="115.8" r="0.3"/>
<circle class="via" cx="132" cy="115.8" r="0.3"/>
<circle class="via" cx="136" cy="115.8" r="0.3"/>
<circle class="via" cx="140" cy="115.8" r="0.3"/>
<circle class="via" cx="116" cy="119.8" r="0.3"/>
<circle class="via" cx="120" cy="119.8" r="0.3"/>
<circle class="via" cx="124" cy="119.8" r="0.3"/>
<circle class="via" cx="128" cy="119.8" r="0.3"/>
<circle class="via" cx="132" cy="119.8" r="0.3"/>
<circle class="via" cx="136" cy="119.8" r="0.3"/>
<circle class="via" cx="140" cy="119.8" r="0.3"/>
<circle class="via" cx="116" cy="123.8" r="0.3"/>
<circle class="via" cx="120" cy="123.8" r="0.3"/>
<circle class="via" cx="124" cy="123.8" r="0.3"/>
<circle class="via" cx="128" cy="123.8" r="0.3"/>
<circle class="via" cx="132" cy="123.8" r="0.3"/>
<circle class="via" cx="136" cy="123.8" r="0.3"/>
<circle class="via" cx="140" cy="123.8" r="0.3"/>
<circle class="via" cx="116.4" cy="93" r="0.3"/>
<circle class="via" cx="116.4" cy="86" r="0.3"/>
<circle class="via" cx="105.5" cy="84.5" r="0.3"/>
<path class="plane-edge" d="M97,83 L156,83"/>
<text class="note" x="101" y="85.4">GND plane edge &#8212; no copper above, any layer</text>
<path class="dim" d="M100,133.2 L153,133.2"/>
<path class="dim" d="M100,132.6 L100,133.8"/>
<path class="dim" d="M153,132.6 L153,133.8"/>
<text class="dim-text" x="126.5" y="132.5" text-anchor="middle">53 mm</text>
<path class="dim" d="M97,60 L97,129"/>
<path class="dim" d="M96.4,60 L97.6,60"/>
<path class="dim" d="M96.4,129 L97.6,129"/>
<text class="dim-text" x="96.1" y="94.5" text-anchor="middle" dominant-baseline="middle" transform="rotate(-90 96.1 94.5)">69 mm</text>
<path class="dim" d="M156,60 L156,83"/>
<path class="dim" d="M155.4,60 L156.6,60"/>
<path class="dim" d="M155.4,83 L156.6,83"/>
<text class="dim-text" x="155.1" y="71.5" text-anchor="middle" dominant-baseline="middle" transform="rotate(-90 155.1 71.5)">23</text>
</svg>
